<?xml version="1.0" encoding="utf-8"?><svg xmlns="http://www.w3.org/2000/svg" xmlns:xlink="http://www.w3.org/1999/xlink"><symbol viewBox="0 0 486.4 486.4" id="garbage" xmlns="http://www.w3.org/2000/svg"><path d="M446 70H344.8V53.5c0-29.5-24-53.5-53.5-53.5h-96.2c-29.5 0-53.5 24-53.5 53.5V70H40.4c-7.5 0-13.5 6-13.5 13.5S32.9 97 40.4 97h24.4v317.2c0 39.8 32.4 72.2 72.2 72.2h212.4c39.8 0 72.2-32.4 72.2-72.2V97H446c7.5 0 13.5-6 13.5-13.5S453.5 70 446 70zM168.6 53.5c0-14.6 11.9-26.5 26.5-26.5h96.2c14.6 0 26.5 11.9 26.5 26.5V70H168.6V53.5zm226 360.7c0 24.9-20.3 45.2-45.2 45.2H137c-24.9 0-45.2-20.3-45.2-45.2V97h302.9v317.2h-.1z"/><path d="M243.2 411c7.5 0 13.5-6 13.5-13.5V158.9c0-7.5-6-13.5-13.5-13.5s-13.5 6-13.5 13.5v238.5c0 7.5 6 13.6 13.5 13.6zm-88.1-14.9c7.5 0 13.5-6 13.5-13.5V173.7c0-7.5-6-13.5-13.5-13.5s-13.5 6-13.5 13.5v208.9c0 7.5 6.1 13.5 13.5 13.5zm176.2 0c7.5 0 13.5-6 13.5-13.5V173.7c0-7.5-6-13.5-13.5-13.5s-13.5 6-13.5 13.5v208.9c0 7.5 6 13.5 13.5 13.5z"/></symbol><symbol viewBox="0 0 511.626 511.627" id="list" xmlns="http://www.w3.org/2000/svg"><path d="M118.771 200.999H27.406c-7.611 0-14.084 2.664-19.414 7.994C2.663 214.32 0 220.791 0 228.407v54.823c0 7.61 2.663 14.078 7.992 19.406 5.33 5.329 11.803 7.994 19.414 7.994h91.365c7.611 0 14.084-2.665 19.414-7.994 5.33-5.328 7.992-11.796 7.992-19.406v-54.823c0-7.616-2.662-14.087-7.992-19.414s-11.803-7.994-19.414-7.994zm0-146.185H27.406c-7.611 0-14.084 2.663-19.414 7.993C2.663 68.137 0 74.61 0 82.221v54.821c0 7.616 2.663 14.091 7.992 19.417 5.33 5.327 11.803 7.994 19.414 7.994h91.365c7.611 0 14.084-2.667 19.414-7.994s7.992-11.798 7.992-19.414v-54.82c0-7.611-2.662-14.084-7.992-19.417-5.33-5.328-11.803-7.994-19.414-7.994zm0 292.363H27.406c-7.611 0-14.084 2.662-19.414 7.994C2.663 360.502 0 366.974 0 374.585v54.826c0 7.61 2.663 14.086 7.992 19.41 5.33 5.332 11.803 7.991 19.414 7.991h91.365c7.611 0 14.084-2.663 19.414-7.991 5.33-5.324 7.992-11.8 7.992-19.41v-54.826c0-7.611-2.662-14.083-7.992-19.411s-11.803-7.997-19.414-7.997zm365.444-146.178H210.131c-7.614 0-14.084 2.664-19.414 7.994s-7.992 11.798-7.992 19.414v54.823c0 7.61 2.662 14.078 7.992 19.406 5.327 5.329 11.8 7.994 19.414 7.994h274.091c7.61 0 14.085-2.665 19.41-7.994 5.332-5.328 7.994-11.796 7.994-19.406v-54.823c0-7.616-2.662-14.087-7.997-19.414-5.329-5.33-11.796-7.994-19.414-7.994zm0 146.178H210.131c-7.614 0-14.084 2.662-19.414 7.994-5.33 5.331-7.992 11.8-7.992 19.41v54.823c0 7.611 2.662 14.089 7.992 19.417 5.327 5.328 11.8 7.987 19.414 7.987h274.091c7.61 0 14.085-2.662 19.41-7.987 5.332-5.331 7.994-11.806 7.994-19.417v-54.823c0-7.61-2.662-14.085-7.997-19.41-5.329-5.325-11.796-7.994-19.414-7.994zm19.414-284.366c-5.329-5.327-11.797-7.993-19.414-7.993H210.131c-7.614 0-14.084 2.663-19.414 7.993s-7.992 11.803-7.992 19.414v54.821c0 7.616 2.662 14.083 7.992 19.414 5.327 5.327 11.8 7.994 19.414 7.994h274.091c7.61 0 14.078-2.667 19.41-7.994s7.994-11.798 7.994-19.414V82.225c0-7.612-2.662-14.084-7.997-19.414z"/></symbol><symbol viewBox="0 0 384.97 384.97" id="menu" xmlns="http://www.w3.org/2000/svg"><path d="M72.182 0H24.061C10.767 0 0 10.779 0 24.061v48.121c0 13.293 10.767 24.061 24.061 24.061h48.121c13.293 0 24.061-10.767 24.061-24.061V24.061C96.242 10.779 85.475 0 72.182 0zm0 72.182H24.061V24.061h48.121v48.121zM216.545 0h-48.121c-13.293 0-24.061 10.779-24.061 24.061v48.121c0 13.293 10.767 24.061 24.061 24.061h48.121c13.281 0 24.061-10.767 24.061-24.061V24.061C240.606 10.779 229.827 0 216.545 0zm0 72.182h-48.121V24.061h48.121v48.121zM360.909 0h-48.121c-13.293 0-24.061 10.779-24.061 24.061v48.121c0 13.293 10.767 24.061 24.061 24.061h48.121c13.281 0 24.061-10.767 24.061-24.061V24.061C384.97 10.779 374.191 0 360.909 0zm0 72.182h-48.121V24.061h48.121v48.121zM72.182 144.364H24.061C10.767 144.364 0 155.131 0 168.424v48.121c0 13.293 10.767 24.061 24.061 24.061h48.121c13.293 0 24.061-10.767 24.061-24.061v-48.121c-.001-13.281-10.768-24.06-24.061-24.06zm0 72.181H24.061v-48.121h48.121v48.121zm144.363-72.181h-48.121c-13.293 0-24.061 10.767-24.061 24.061v48.121c0 13.293 10.767 24.061 24.061 24.061h48.121c13.281 0 24.061-10.767 24.061-24.061v-48.121c0-13.282-10.779-24.061-24.061-24.061zm0 72.181h-48.121v-48.121h48.121v48.121zm144.364-72.181h-48.121c-13.293 0-24.061 10.767-24.061 24.061v48.121c0 13.293 10.767 24.061 24.061 24.061h48.121c13.281 0 24.061-10.767 24.061-24.061v-48.121c0-13.282-10.779-24.061-24.061-24.061zm0 72.181h-48.121v-48.121h48.121v48.121zM72.182 288.727H24.061C10.767 288.727 0 299.494 0 312.788v48.121c0 13.293 10.767 24.061 24.061 24.061h48.121c13.293 0 24.061-10.767 24.061-24.061v-48.121c-.001-13.282-10.768-24.061-24.061-24.061zm0 72.182H24.061v-48.121h48.121v48.121zm144.363-72.182h-48.121c-13.293 0-24.061 10.767-24.061 24.061v48.121c0 13.293 10.767 24.061 24.061 24.061h48.121c13.281 0 24.061-10.767 24.061-24.061v-48.121c0-13.282-10.779-24.061-24.061-24.061zm0 72.182h-48.121v-48.121h48.121v48.121zm144.364-72.182h-48.121c-13.293 0-24.061 10.767-24.061 24.061v48.121c0 13.293 10.767 24.061 24.061 24.061h48.121c13.281 0 24.061-10.767 24.061-24.061v-48.121c0-13.282-10.779-24.061-24.061-24.061zm0 72.182h-48.121v-48.121h48.121v48.121z"/></symbol><symbol viewBox="0 0 512.008 512.008" id="visibility" xmlns="http://www.w3.org/2000/svg"><path d="M256.011 106.673c-131.435 0-248.555 136.619-253.483 142.443-3.371 3.968-3.371 9.792 0 13.781 2.944 3.477 45.995 53.461 108.075 93.269l66.859-66.859a84.91 84.91 0 0 1-6.784-33.301c0-47.061 38.272-85.333 85.333-85.333a84.907 84.907 0 0 1 33.301 6.784l54.976-54.976c-26.795-9.579-56.213-15.808-88.277-15.808zm254.101 143.253c-2.731-3.947-48.021-67.691-124.16-108.779l58.944-58.944c4.16-4.16 4.16-10.923 0-15.083s-10.923-4.16-15.083 0L67.147 429.788c-4.16 4.16-4.16 10.923 0 15.083a10.56 10.56 0 0 0 7.531 3.136c2.731 0 5.461-1.045 7.552-3.115l66.88-66.88c32.96 16.085 69.312 27.328 106.901 27.328 131.435 0 248.555-136.619 253.483-142.443 3.093-3.691 3.37-9.003.618-12.971zM256.011 341.34c-19.691 0-37.589-6.976-52.053-18.197l119.189-119.189c11.221 14.464 18.197 32.363 18.197 52.053 0 47.061-38.272 85.333-85.333 85.333z"/></symbol></svg>