<?xml version="1.0" encoding="utf-8"?><svg xmlns="http://www.w3.org/2000/svg" xmlns:xlink="http://www.w3.org/1999/xlink"><symbol viewBox="0 0 511.626 511.627" id="list" xmlns="http://www.w3.org/2000/svg"><path d="M118.771 200.999H27.406c-7.611 0-14.084 2.664-19.414 7.994C2.663 214.32 0 220.791 0 228.407v54.823c0 7.61 2.663 14.078 7.992 19.406 5.33 5.329 11.803 7.994 19.414 7.994h91.365c7.611 0 14.084-2.665 19.414-7.994 5.33-5.328 7.992-11.796 7.992-19.406v-54.823c0-7.616-2.662-14.087-7.992-19.414s-11.803-7.994-19.414-7.994zm0-146.185H27.406c-7.611 0-14.084 2.663-19.414 7.993C2.663 68.137 0 74.61 0 82.221v54.821c0 7.616 2.663 14.091 7.992 19.417 5.33 5.327 11.803 7.994 19.414 7.994h91.365c7.611 0 14.084-2.667 19.414-7.994s7.992-11.798 7.992-19.414v-54.82c0-7.611-2.662-14.084-7.992-19.417-5.33-5.328-11.803-7.994-19.414-7.994zm0 292.363H27.406c-7.611 0-14.084 2.662-19.414 7.994C2.663 360.502 0 366.974 0 374.585v54.826c0 7.61 2.663 14.086 7.992 19.41 5.33 5.332 11.803 7.991 19.414 7.991h91.365c7.611 0 14.084-2.663 19.414-7.991 5.33-5.324 7.992-11.8 7.992-19.41v-54.826c0-7.611-2.662-14.083-7.992-19.411s-11.803-7.997-19.414-7.997zm365.444-146.178H210.131c-7.614 0-14.084 2.664-19.414 7.994s-7.992 11.798-7.992 19.414v54.823c0 7.61 2.662 14.078 7.992 19.406 5.327 5.329 11.8 7.994 19.414 7.994h274.091c7.61 0 14.085-2.665 19.41-7.994 5.332-5.328 7.994-11.796 7.994-19.406v-54.823c0-7.616-2.662-14.087-7.997-19.414-5.329-5.33-11.796-7.994-19.414-7.994zm0 146.178H210.131c-7.614 0-14.084 2.662-19.414 7.994-5.33 5.331-7.992 11.8-7.992 19.41v54.823c0 7.611 2.662 14.089 7.992 19.417 5.327 5.328 11.8 7.987 19.414 7.987h274.091c7.61 0 14.085-2.662 19.41-7.987 5.332-5.331 7.994-11.806 7.994-19.417v-54.823c0-7.61-2.662-14.085-7.997-19.41-5.329-5.325-11.796-7.994-19.414-7.994zm19.414-284.366c-5.329-5.327-11.797-7.993-19.414-7.993H210.131c-7.614 0-14.084 2.663-19.414 7.993s-7.992 11.803-7.992 19.414v54.821c0 7.616 2.662 14.083 7.992 19.414 5.327 5.327 11.8 7.994 19.414 7.994h274.091c7.61 0 14.078-2.667 19.41-7.994s7.994-11.798 7.994-19.414V82.225c0-7.612-2.662-14.084-7.997-19.414z"/></symbol><symbol viewBox="0 0 384.97 384.97" id="menu" xmlns="http://www.w3.org/2000/svg"><path d="M72.182 0H24.061C10.767 0 0 10.779 0 24.061v48.121c0 13.293 10.767 24.061 24.061 24.061h48.121c13.293 0 24.061-10.767 24.061-24.061V24.061C96.242 10.779 85.475 0 72.182 0zm0 72.182H24.061V24.061h48.121v48.121zM216.545 0h-48.121c-13.293 0-24.061 10.779-24.061 24.061v48.121c0 13.293 10.767 24.061 24.061 24.061h48.121c13.281 0 24.061-10.767 24.061-24.061V24.061C240.606 10.779 229.827 0 216.545 0zm0 72.182h-48.121V24.061h48.121v48.121zM360.909 0h-48.121c-13.293 0-24.061 10.779-24.061 24.061v48.121c0 13.293 10.767 24.061 24.061 24.061h48.121c13.281 0 24.061-10.767 24.061-24.061V24.061C384.97 10.779 374.191 0 360.909 0zm0 72.182h-48.121V24.061h48.121v48.121zM72.182 144.364H24.061C10.767 144.364 0 155.131 0 168.424v48.121c0 13.293 10.767 24.061 24.061 24.061h48.121c13.293 0 24.061-10.767 24.061-24.061v-48.121c-.001-13.281-10.768-24.06-24.061-24.06zm0 72.181H24.061v-48.121h48.121v48.121zm144.363-72.181h-48.121c-13.293 0-24.061 10.767-24.061 24.061v48.121c0 13.293 10.767 24.061 24.061 24.061h48.121c13.281 0 24.061-10.767 24.061-24.061v-48.121c0-13.282-10.779-24.061-24.061-24.061zm0 72.181h-48.121v-48.121h48.121v48.121zm144.364-72.181h-48.121c-13.293 0-24.061 10.767-24.061 24.061v48.121c0 13.293 10.767 24.061 24.061 24.061h48.121c13.281 0 24.061-10.767 24.061-24.061v-48.121c0-13.282-10.779-24.061-24.061-24.061zm0 72.181h-48.121v-48.121h48.121v48.121zM72.182 288.727H24.061C10.767 288.727 0 299.494 0 312.788v48.121c0 13.293 10.767 24.061 24.061 24.061h48.121c13.293 0 24.061-10.767 24.061-24.061v-48.121c-.001-13.282-10.768-24.061-24.061-24.061zm0 72.182H24.061v-48.121h48.121v48.121zm144.363-72.182h-48.121c-13.293 0-24.061 10.767-24.061 24.061v48.121c0 13.293 10.767 24.061 24.061 24.061h48.121c13.281 0 24.061-10.767 24.061-24.061v-48.121c0-13.282-10.779-24.061-24.061-24.061zm0 72.182h-48.121v-48.121h48.121v48.121zm144.364-72.182h-48.121c-13.293 0-24.061 10.767-24.061 24.061v48.121c0 13.293 10.767 24.061 24.061 24.061h48.121c13.281 0 24.061-10.767 24.061-24.061v-48.121c0-13.282-10.779-24.061-24.061-24.061zm0 72.182h-48.121v-48.121h48.121v48.121z"/></symbol></svg>